<svg aria-hidden="true" style="position: absolute; width: 0; height: 0; overflow: hidden;" version="1.1" xmlns="http://www.w3.org/2000/svg" xmlns:xlink="http://www.w3.org/1999/xlink">
<defs>
<symbol id="icon-Double_right" viewBox="0 0 32 32">
<path fill="#fff" style="fill: var(--color1, #fff)" d="M7 2h18c1.657 0 3 1.343 3 3v18c0 1.657-1.343 3-3 3h-18c-1.657 0-3-1.343-3-3v-18c0-1.657 1.343-3 3-3z"></path>
<path fill="none" stroke="#434343" style="stroke: var(--color2, #434343)" stroke-linejoin="miter" stroke-linecap="butt" stroke-miterlimit="4" stroke-width="1" d="M7 2h18c1.657 0 3 1.343 3 3v18c0 1.657-1.343 3-3 3h-18c-1.657 0-3-1.343-3-3v-18c0-1.657 1.343-3 3-3z"></path>
<path fill="#434343" style="fill: var(--color2, #434343)" d="M14.277 20.462c-0.297 0.289-0.304 0.764-0.015 1.061s0.764 0.304 1.060 0.015l-1.046-1.075zM22 14l0.523 0.538c0.145-0.141 0.227-0.335 0.227-0.538s-0.082-0.396-0.227-0.538l-0.523 0.538zM15.323 6.462c-0.297-0.289-0.772-0.282-1.060 0.015s-0.282 0.772 0.015 1.061l1.046-1.075zM9.477 19.295c-0.297 0.289-0.304 0.764-0.015 1.061s0.764 0.304 1.061 0.015l-1.046-1.076zM16 14l0.523 0.538c0.145-0.141 0.227-0.335 0.227-0.538s-0.082-0.396-0.227-0.538l-0.523 0.538zM10.523 7.629c-0.297-0.289-0.772-0.282-1.061 0.015s-0.282 0.772 0.015 1.061l1.046-1.076zM15.323 21.538l7.2-7-1.046-1.075-7.2 7 1.046 1.075zM22.523 13.462l-7.2-7-1.046 1.075 7.2 7 1.046-1.075zM10.523 20.371l6-5.833-1.046-1.076-6 5.833 1.046 1.076zM16.523 13.462l-6-5.833-1.046 1.076 6 5.833 1.046-1.076z"></path>
</symbol>
<symbol id="icon-check" viewBox="0 0 32 32">
<path stroke-linejoin="round" stroke-linecap="round" stroke-miterlimit="4" stroke-width="1.3333" d="M6.667 16c0-4.453 3.146-8.285 7.513-9.153s8.74 1.469 10.443 5.583 0.264 8.858-3.438 11.332c-3.702 2.474-8.637 1.987-11.785-1.161-1.75-1.751-2.733-4.125-2.733-6.6z"></path>
</symbol>
<symbol id="icon-Sort-by" viewBox="0 0 32 32">
<path fill="none" stroke="#7a7a7a" style="stroke: var(--color3, #7a7a7a)" stroke-linejoin="round" stroke-linecap="round" stroke-miterlimit="4" stroke-width="1.6" d="M14.253 10.467c0.671-1.009 0.502-2.357-0.397-3.169s-2.257-0.844-3.193-0.074c-0.936 0.77-1.166 2.109-0.543 3.147s1.914 1.464 3.033 0.999c0.447-0.187 0.829-0.501 1.099-0.904z"></path>
<path fill="none" stroke="#7a7a7a" style="stroke: var(--color3, #7a7a7a)" stroke-linejoin="round" stroke-linecap="round" stroke-miterlimit="4" stroke-width="1.6" d="M14.253 24.22c0.671-1.009 0.502-2.357-0.397-3.169s-2.257-0.844-3.193-0.074c-0.936 0.77-1.166 2.109-0.543 3.147s1.914 1.464 3.033 1c0.447-0.187 0.829-0.501 1.099-0.904v0z"></path>
<path fill="none" stroke="#7a7a7a" style="stroke: var(--color3, #7a7a7a)" stroke-linejoin="round" stroke-linecap="round" stroke-miterlimit="4" stroke-width="1.6" d="M17.747 17.343c-0.671-1.009-0.503-2.357 0.396-3.169s2.257-0.844 3.193-0.074c0.936 0.77 1.167 2.109 0.543 3.147s-1.914 1.464-3.033 1c-0.447-0.187-0.829-0.501-1.099-0.904v0z"></path>
<path fill="#7a7a7a" style="fill: var(--color3, #7a7a7a)" d="M14.667 8.301c-0.442 0-0.8 0.358-0.8 0.8s0.358 0.8 0.8 0.8v-1.6zM25.333 9.901c0.442 0 0.8-0.358 0.8-0.8s-0.358-0.8-0.8-0.8v1.6zM9.769 9.901c0.442 0 0.8-0.358 0.8-0.8s-0.358-0.8-0.8-0.8v1.6zM6.667 8.301c-0.442 0-0.8 0.358-0.8 0.8s0.358 0.8 0.8 0.8v-1.6zM14.667 22.056c-0.442 0-0.8 0.358-0.8 0.8s0.358 0.8 0.8 0.8v-1.6zM25.333 23.656c0.442 0 0.8-0.358 0.8-0.8s-0.358-0.8-0.8-0.8v1.6zM9.769 23.656c0.442 0 0.8-0.358 0.8-0.8s-0.358-0.8-0.8-0.8v1.6zM6.667 22.056c-0.442 0-0.8 0.358-0.8 0.8s0.358 0.8 0.8 0.8v-1.6zM17.333 16.779c0.442 0 0.8-0.358 0.8-0.8s-0.358-0.8-0.8-0.8v1.6zM6.667 15.179c-0.442 0-0.8 0.358-0.8 0.8s0.358 0.8 0.8 0.8v-1.6zM22.231 15.179c-0.442 0-0.8 0.358-0.8 0.8s0.358 0.8 0.8 0.8v-1.6zM25.333 16.779c0.442 0 0.8-0.358 0.8-0.8s-0.358-0.8-0.8-0.8v1.6zM14.667 9.901h10.667v-1.6h-10.667v1.6zM9.769 8.301h-3.103v1.6h3.103v-1.6zM14.667 23.656h10.667v-1.6h-10.667v1.6zM9.769 22.056h-3.103v1.6h3.103v-1.6zM17.333 15.179h-10.667v1.6h10.667v-1.6zM22.231 16.779h3.103v-1.6h-3.103v1.6z"></path>
</symbol>
<symbol id="icon-Right_Arrow" viewBox="0 0 32 32">
<path stroke-linejoin="round" stroke-linecap="round" stroke-miterlimit="4" stroke-width="1.5238" d="M9.333 13.333l6.667 6.667 6.667-6.667"></path>
</symbol>
<symbol id="icon-More" viewBox="0 0 32 32">
<path stroke-linejoin="round" stroke-linecap="round" stroke-miterlimit="4" stroke-width="1.5238" d="M10.667 16c0 1.473-1.194 2.667-2.667 2.667s-2.667-1.194-2.667-2.667c0-1.473 1.194-2.667 2.667-2.667 0.707 0 1.386 0.281 1.886 0.781s0.781 1.178 0.781 1.886z"></path>
<path stroke-linejoin="round" stroke-linecap="round" stroke-miterlimit="4" stroke-width="1.5238" d="M18.667 16c0 1.473-1.194 2.667-2.667 2.667s-2.667-1.194-2.667-2.667c0-1.473 1.194-2.667 2.667-2.667s2.667 1.194 2.667 2.667z"></path>
<path stroke-linejoin="round" stroke-linecap="round" stroke-miterlimit="4" stroke-width="1.5238" d="M26.667 16c0 1.473-1.194 2.667-2.667 2.667s-2.667-1.194-2.667-2.667c0-1.473 1.194-2.667 2.667-2.667s2.667 1.194 2.667 2.667z"></path>
</symbol>
<symbol id="icon-Dashboard_2" viewBox="0 0 32 32">
<path d="M12 7.333c0.368 0 0.667-0.298 0.667-0.667s-0.298-0.667-0.667-0.667v1.333zM6 14.667c0 0.368 0.298 0.667 0.667 0.667s0.667-0.299 0.667-0.667h-1.333zM12 6c-0.368 0-0.667 0.298-0.667 0.667s0.298 0.667 0.667 0.667v-1.333zM24.667 14.667c0 0.368 0.299 0.667 0.667 0.667s0.667-0.299 0.667-0.667h-1.333zM7.333 14.667c0-0.368-0.298-0.667-0.667-0.667s-0.667 0.299-0.667 0.667h1.333zM26 14.667c0-0.368-0.299-0.667-0.667-0.667s-0.667 0.299-0.667 0.667h1.333zM12 6c-3.314 0-6 2.686-6 6h1.333c0-2.577 2.089-4.667 4.667-4.667v-1.333zM6 12v2.667h1.333v-2.667h-1.333zM12 7.333h8v-1.333h-8v1.333zM20 7.333c2.577 0 4.667 2.089 4.667 4.667h1.333c0-3.314-2.686-6-6-6v1.333zM24.667 12v2.667h1.333v-2.667h-1.333zM6 14.667v5.333h1.333v-5.333h-1.333zM6 20c0 3.314 2.686 6 6 6v-1.333c-2.577 0-4.667-2.089-4.667-4.667h-1.333zM12 26h8v-1.333h-8v1.333zM20 26c3.314 0 6-2.686 6-6h-1.333c0 2.577-2.089 4.667-4.667 4.667v1.333zM26 20v-5.333h-1.333v5.333h1.333z"></path>
</symbol>
<symbol id="icon-Circle-Cross" viewBox="0 0 32 32">
<path fill="none" stroke="#434343" style="stroke: var(--color2, #434343)" stroke-linejoin="round" stroke-linecap="round" stroke-miterlimit="4" stroke-width="1.3333" d="M6.667 16c0-4.453 3.146-8.285 7.513-9.153s8.74 1.469 10.443 5.583 0.264 8.858-3.438 11.332c-3.702 2.474-8.637 1.987-11.785-1.161-1.75-1.751-2.733-4.125-2.733-6.6z"></path>
<path d="M12.029 19.027c-0.26 0.26-0.26 0.682-0 0.943s0.682 0.26 0.943 0l-0.943-0.943zM16.471 16.472c0.26-0.26 0.26-0.682 0-0.943s-0.682-0.261-0.943-0l0.943 0.943zM15.528 15.529c-0.26 0.26-0.26 0.683 0 0.943s0.683 0.26 0.943-0l-0.943-0.942zM19.97 12.97c0.26-0.26 0.26-0.683-0-0.943s-0.683-0.26-0.943 0l0.943 0.942zM16.471 15.529c-0.26-0.26-0.683-0.26-0.943 0s-0.26 0.683 0 0.943l0.943-0.943zM19.029 19.97c0.26 0.26 0.683 0.26 0.943-0s0.26-0.683-0-0.943l-0.943 0.943zM15.529 16.472c0.26 0.26 0.682 0.26 0.943 0s0.26-0.682 0-0.943l-0.943 0.943zM12.972 12.028c-0.26-0.26-0.682-0.26-0.943-0s-0.26 0.682-0 0.943l0.943-0.943zM12.971 19.97l3.5-3.499-0.943-0.943-3.5 3.499 0.943 0.943zM16.472 16.471l3.499-3.501-0.943-0.942-3.499 3.501 0.943 0.942zM15.529 16.472l3.5 3.499 0.943-0.943-3.5-3.499-0.943 0.943zM16.471 15.529l-3.5-3.501-0.943 0.943 3.5 3.501 0.943-0.943z"></path>
</symbol>
<symbol id="icon-Circle-Add" viewBox="0 0 34 32">
<path fill="none" stroke="#7a7a7a" style="stroke: var(--color3, #7a7a7a)" stroke-linejoin="round" stroke-linecap="round" stroke-miterlimit="4" stroke-width="1.5238" d="M6.984 16c0-4.453 3.296-8.285 7.871-9.153s9.156 1.469 10.941 5.583c1.785 4.114 0.277 8.858-3.602 11.332s-9.048 1.987-12.346-1.161c-1.834-1.75-2.864-4.125-2.864-6.6z"></path>
<path fill="#7a7a7a" style="fill: var(--color3, #7a7a7a)" d="M13.095 15.238c-0.421 0-0.762 0.341-0.762 0.762s0.341 0.762 0.762 0.762v-1.524zM16.762 16.762c0.421 0 0.762-0.341 0.762-0.762s-0.341-0.762-0.762-0.762v1.524zM16.762 15.238c-0.421 0-0.762 0.341-0.762 0.762s0.341 0.762 0.762 0.762v-1.524zM20.428 16.762c0.421 0 0.762-0.341 0.762-0.762s-0.341-0.762-0.762-0.762v1.524zM17.524 16c0-0.421-0.341-0.762-0.762-0.762s-0.762 0.341-0.762 0.762h1.524zM16 19.5c0 0.421 0.341 0.762 0.762 0.762s0.762-0.341 0.762-0.762h-1.524zM16 16c0 0.421 0.341 0.762 0.762 0.762s0.762-0.341 0.762-0.762h-1.524zM17.524 12.5c0-0.421-0.341-0.762-0.762-0.762s-0.762 0.341-0.762 0.762h1.524zM13.095 16.762h3.667v-1.524h-3.667v1.524zM16.762 16.762h3.667v-1.524h-3.667v1.524zM16 16v3.5h1.524v-3.5h-1.524zM17.524 16v-3.5h-1.524v3.5h1.524z"></path>
</symbol>
<symbol id="icon-check1" viewBox="0 0 32 32">
<path stroke-linejoin="round" stroke-linecap="round" stroke-miterlimit="4" stroke-width="1.3333" d="M6.667 16c0-4.453 3.146-8.285 7.513-9.153s8.74 1.469 10.443 5.583 0.264 8.858-3.438 11.332c-3.702 2.474-8.637 1.987-11.785-1.161-1.75-1.751-2.733-4.125-2.733-6.6z"></path>
<path stroke-linejoin="round" stroke-linecap="round" stroke-miterlimit="4" stroke-width="1.3333" d="M11.333 16l3.111 3.111 6.223-6.221"></path>
</symbol>
<symbol id="icon-Arrow_Top" viewBox="0 0 30 32">
<path d="M8.325 13.155c-0.283 0.312-0.259 0.794 0.052 1.076s0.793 0.259 1.076-0.052l-1.129-1.024zM15.803 7.179c0.283-0.312 0.259-0.794-0.052-1.076s-0.794-0.259-1.076 0.052l1.129 1.024zM15.803 6.155c-0.283-0.312-0.764-0.335-1.076-0.052s-0.335 0.765-0.052 1.076l1.129-1.024zM21.023 14.179c0.283 0.312 0.764 0.335 1.076 0.052s0.335-0.765 0.052-1.076l-1.129 1.024zM16 6.667c0-0.421-0.341-0.762-0.762-0.762s-0.762 0.341-0.762 0.762h1.524zM14.476 25.333c0 0.421 0.341 0.762 0.762 0.762s0.762-0.341 0.762-0.762h-1.524zM9.453 14.179l6.349-7-1.129-1.024-6.349 7 1.129 1.024zM14.674 7.179l6.349 7 1.129-1.024-6.349-7-1.129 1.024zM14.476 6.667v18.667h1.524v-18.667h-1.524z"></path>
</symbol>
<symbol id="icon-Arrow_Right" viewBox="0 0 32 32">
<path d="M17.808 22.115c-0.305 0.29-0.317 0.773-0.026 1.077s0.772 0.317 1.077 0.026l-1.051-1.104zM25.859 16.552c0.305-0.29 0.317-0.773 0.026-1.077s-0.773-0.316-1.077-0.026l1.051 1.104zM24.808 16.552c0.305 0.29 0.787 0.278 1.077-0.026s0.278-0.787-0.026-1.077l-1.051 1.104zM18.859 8.782c-0.305-0.29-0.787-0.278-1.077 0.026s-0.278 0.787 0.026 1.077l1.051-1.103zM25.333 16.762c0.421 0 0.762-0.341 0.762-0.762s-0.341-0.762-0.762-0.762v1.524zM6.667 15.238c-0.421 0-0.762 0.341-0.762 0.762s0.341 0.762 0.762 0.762v-1.524zM18.859 23.218l7-6.667-1.051-1.104-7 6.667 1.051 1.104zM25.859 15.448l-7-6.667-1.051 1.103 7 6.667 1.051-1.104zM25.333 15.238h-18.667v1.524h18.667v-1.524z"></path>
</symbol>
<symbol id="icon-Arrow_Left_5" viewBox="0 0 32 32">
<path fill="#fff" style="fill: var(--color1, #fff)" d="M7 2h18c1.657 0 3 1.343 3 3v18c0 1.657-1.343 3-3 3h-18c-1.657 0-3-1.343-3-3v-18c0-1.657 1.343-3 3-3z"></path>
<path fill="none" stroke="#434343" style="stroke: var(--color2, #434343)" stroke-linejoin="miter" stroke-linecap="butt" stroke-miterlimit="4" stroke-width="1" d="M7 2h18c1.657 0 3 1.343 3 3v18c0 1.657-1.343 3-3 3h-18c-1.657 0-3-1.343-3-3v-18c0-1.657 1.343-3 3-3z"></path>
<path fill="none" stroke="#434343" style="stroke: var(--color2, #434343)" stroke-linejoin="round" stroke-linecap="round" stroke-miterlimit="4" stroke-width="1.5" d="M14 9l5 5-5 5"></path>
</symbol>
<symbol id="icon-Arrow_Down" viewBox="0 0 32 32">
<path d="M23.218 18.859c0.29-0.305 0.278-0.787-0.026-1.077s-0.787-0.278-1.077 0.026l1.104 1.051zM15.448 24.808c-0.29 0.305-0.278 0.787 0.026 1.077s0.787 0.278 1.077-0.026l-1.104-1.051zM15.448 25.859c0.29 0.305 0.773 0.317 1.077 0.026s0.317-0.773 0.026-1.077l-1.104 1.051zM9.885 17.808c-0.29-0.305-0.772-0.317-1.077-0.026s-0.316 0.772-0.026 1.077l1.103-1.051zM15.238 25.333c0 0.421 0.341 0.762 0.762 0.762s0.762-0.341 0.762-0.762h-1.524zM16.762 6.667c0-0.421-0.341-0.762-0.762-0.762s-0.762 0.341-0.762 0.762h1.524zM22.115 17.808l-6.667 7 1.104 1.051 6.667-7-1.104-1.051zM16.552 24.808l-6.667-7-1.103 1.051 6.667 7 1.104-1.051zM16.762 25.333v-18.667h-1.524v18.667h1.524z"></path>
</symbol>
<symbol id="icon-Down_Arrow_5" viewBox="0 0 32 32">
<path fill="none" stroke="#434343" style="stroke: var(--color2, #434343)" stroke-linejoin="round" stroke-linecap="round" stroke-miterlimit="4" stroke-width="1.3333" d="M16 25.334c4.45 0 8.281-3.141 9.153-7.504s-1.458-8.736-5.566-10.446-8.852-0.282-11.334 3.412c-2.482 3.694-2.011 8.625 1.125 11.782 1.752 1.764 4.135 2.756 6.621 2.756z"></path>
<path d="M17.984 12.197c0.331 0.448 0.496 0.928 0.496 1.44 0 0.363-0.080 0.688-0.24 0.976s-0.411 0.613-0.752 0.976c-0.299 0.309-0.517 0.603-0.656 0.88-0.139 0.267-0.229 0.517-0.272 0.752-0.032 0.224-0.069 0.581-0.112 1.072 0 0.245-0.085 0.427-0.256 0.544-0.171 0.107-0.347 0.16-0.528 0.16-0.48 0-0.72-0.288-0.72-0.864 0-0.309 0.053-0.677 0.16-1.104s0.304-0.891 0.592-1.392c0.096-0.171 0.219-0.341 0.368-0.512 0.16-0.171 0.261-0.283 0.304-0.336 0.171-0.181 0.315-0.368 0.432-0.56 0.117-0.203 0.176-0.379 0.176-0.528 0-0.171-0.027-0.304-0.080-0.4-0.043-0.096-0.112-0.203-0.208-0.32-0.139-0.16-0.32-0.288-0.544-0.384s-0.432-0.144-0.624-0.144c-0.309 0-0.597 0.059-0.864 0.176-0.256 0.107-0.464 0.251-0.624 0.432-0.149 0.171-0.224 0.347-0.224 0.528 0 0.299 0.059 0.523 0.176 0.672 0.117 0.139 0.176 0.267 0.176 0.384 0 0.064-0.016 0.139-0.048 0.224-0.128 0.299-0.347 0.448-0.656 0.448-0.395 0-0.683-0.149-0.864-0.448s-0.272-0.677-0.272-1.136c0-0.437 0.139-0.853 0.416-1.248 0.277-0.405 0.683-0.736 1.216-0.992s1.168-0.384 1.904-0.384c0.427 0 0.827 0.096 1.2 0.288 0.373 0.181 0.683 0.448 0.928 0.8zM15.664 19.605c0.32 0 0.576 0.112 0.768 0.336 0.16 0.16 0.24 0.379 0.24 0.656 0 0.235-0.112 0.432-0.336 0.592-0.224 0.149-0.469 0.224-0.736 0.224-0.192 0-0.379-0.053-0.56-0.16-0.224-0.16-0.336-0.443-0.336-0.848 0-0.213 0.096-0.4 0.288-0.56 0.203-0.16 0.427-0.24 0.672-0.24z"></path>
</symbol>
<symbol id="icon-Double_right1" viewBox="0 0 32 32">
<path fill="#fff" style="fill: var(--color1, #fff)" d="M7 2h18c1.657 0 3 1.343 3 3v18c0 1.657-1.343 3-3 3h-18c-1.657 0-3-1.343-3-3v-18c0-1.657 1.343-3 3-3z"></path>
<path fill="none" stroke="#a19d9d" style="stroke: var(--color4, #a19d9d)" stroke-linejoin="miter" stroke-linecap="butt" stroke-miterlimit="4" stroke-width="1" d="M7 2h18c1.657 0 3 1.343 3 3v18c0 1.657-1.343 3-3 3h-18c-1.657 0-3-1.343-3-3v-18c0-1.657 1.343-3 3-3z"></path>
<path fill="#a19d9d" style="fill: var(--color4, #a19d9d)" d="M16.677 21.538c0.297 0.289 0.772 0.282 1.061-0.015s0.282-0.772-0.015-1.061l-1.046 1.075zM10 14l-0.523-0.538c-0.145 0.141-0.227 0.335-0.227 0.538s0.082 0.396 0.227 0.538l0.523-0.538zM17.723 7.538c0.297-0.289 0.304-0.764 0.015-1.061s-0.764-0.304-1.061-0.015l1.046 1.075zM21.477 20.371c0.297 0.289 0.772 0.282 1.061-0.015s0.282-0.772-0.015-1.061l-1.046 1.076zM16 14l-0.523-0.538c-0.145 0.141-0.227 0.335-0.227 0.538s0.082 0.396 0.227 0.538l0.523-0.538zM22.523 8.705c0.297-0.289 0.304-0.764 0.015-1.061s-0.764-0.304-1.061-0.015l1.046 1.076zM17.723 20.462l-7.2-7-1.046 1.075 7.2 7 1.046-1.075zM10.523 14.538l7.2-7-1.046-1.075-7.2 7 1.046 1.075zM22.523 19.295l-6-5.833-1.046 1.076 6 5.833 1.046-1.076zM16.523 14.538l6-5.833-1.046-1.076-6 5.833 1.046 1.076z"></path>
</symbol>
<symbol id="icon-Double_Left" viewBox="0 0 32 32">
<path fill="#fff" style="fill: var(--color1, #fff)" d="M7 2h18c1.657 0 3 1.343 3 3v18c0 1.657-1.343 3-3 3h-18c-1.657 0-3-1.343-3-3v-18c0-1.657 1.343-3 3-3z"></path>
<path fill="none" stroke="#a19d9d" style="stroke: var(--color4, #a19d9d)" stroke-linejoin="miter" stroke-linecap="butt" stroke-miterlimit="4" stroke-width="1" d="M7 2h18c1.657 0 3 1.343 3 3v18c0 1.657-1.343 3-3 3h-18c-1.657 0-3-1.343-3-3v-18c0-1.657 1.343-3 3-3z"></path>
<path fill="none" stroke="#a19d9d" style="stroke: var(--color4, #a19d9d)" stroke-linejoin="round" stroke-linecap="round" stroke-miterlimit="4" stroke-width="1.5" d="M19 9l-5 5 5 5"></path>
</symbol>
<symbol id="icon-Component-1" viewBox="0 0 22 32">
<path fill="none" stroke="#7a7a7a" style="stroke: var(--color3, #7a7a7a)" stroke-linejoin="round" stroke-linecap="round" stroke-miterlimit="4" stroke-width="1.2308" d="M15.692 13.734l-4.615-4.429-4.615 4.429"></path>
<path fill="none" stroke="#7a7a7a" style="stroke: var(--color3, #7a7a7a)" stroke-linejoin="round" stroke-linecap="round" stroke-miterlimit="4" stroke-width="1.2308" d="M15.692 18.489l-4.615 4.429-4.615-4.429"></path>
</symbol>
</defs>
</svg>

<svg id="icon-registration" width="46" height="46" viewBox="0 0 46 46" fill="none" xmlns="http://www.w3.org/2000/svg">
  <path fill-rule="evenodd" clip-rule="evenodd" d="M28.0001 13C28.0001 15.7614 25.7615 18 23.0001 18C20.2387 18 18.0001 15.7614 18.0001 13C18.0001 10.2386 20.2387 8.00002 23.0001 8.00002C25.7615 8.00002 28.0001 10.2386 28.0001 13Z" fill="#F2F2F2" stroke="#F2F2F2" stroke-width="1.5" stroke-linecap="round" stroke-linejoin="round" />
  <path fill-rule="evenodd" clip-rule="evenodd" d="M35.5001 28C35.5001 30 28.2919 33.6667 23 33.6667C17.708 33.6667 10.0001 30.5 10.0001 28C10.0001 24.2951 17.708 20.25 23 20.25C28.2919 20.25 35.5001 24.2951 35.5001 28Z" fill="#F2F2F2" stroke="#F2F2F2" stroke-width="1.5" stroke-linecap="round" stroke-linejoin="round" />
</svg>