<svg width="21" height="21" viewBox="0 0 21 21" fill="none" xmlns="http://www.w3.org/2000/svg">
<path d="M15.2371 12.3761C15.4275 12.1761 15.4198 11.8596 15.2198 11.6692C15.0199 11.4787 14.7034 11.4865 14.5129 11.6864L15.2371 12.3761ZM10.1379 16.2802C9.94749 16.4801 9.95521 16.7966 10.1552 16.9871C10.3551 17.1775 10.6716 17.1698 10.8621 16.9698L10.1379 16.2802ZM10.1379 16.9698C10.3284 17.1698 10.6449 17.1775 10.8448 16.9871C11.0448 16.7966 11.0525 16.4801 10.8621 16.2802L10.1379 16.9698ZM6.48707 11.6864C6.29663 11.4865 5.98014 11.4787 5.78017 11.6692C5.58021 11.8596 5.57249 12.1761 5.76293 12.3761L6.48707 11.6864ZM10 16.625C10 16.9011 10.2239 17.125 10.5 17.125C10.7761 17.125 11 16.9011 11 16.625H10ZM11 4.375C11 4.09886 10.7761 3.875 10.5 3.875C10.2239 3.875 10 4.09886 10 4.375H11ZM14.5129 11.6864L10.1379 16.2802L10.8621 16.9698L15.2371 12.3761L14.5129 11.6864ZM10.8621 16.2802L6.48707 11.6864L5.76293 12.3761L10.1379 16.9698L10.8621 16.2802ZM11 16.625V4.375H10V16.625H11Z" fill="#434343"/>
</svg>
