<svg width="21" height="21" viewBox="0 0 21 21" fill="none" xmlns="http://www.w3.org/2000/svg">
<path d="M11.6864 14.5129C11.4865 14.7034 11.4787 15.0199 11.6692 15.2198C11.8596 15.4198 12.1761 15.4275 12.3761 15.2371L11.6864 14.5129ZM16.9698 10.8621C17.1698 10.6716 17.1775 10.3551 16.9871 10.1552C16.7966 9.95521 16.4801 9.94749 16.2802 10.1379L16.9698 10.8621ZM16.2802 10.8621C16.4801 11.0525 16.7966 11.0448 16.9871 10.8448C17.1775 10.6449 17.1698 10.3284 16.9698 10.1379L16.2802 10.8621ZM12.3761 5.76293C12.1761 5.57249 11.8596 5.58021 11.6692 5.78017C11.4787 5.98014 11.4865 6.29663 11.6864 6.48707L12.3761 5.76293ZM16.625 11C16.9011 11 17.125 10.7761 17.125 10.5C17.125 10.2239 16.9011 10 16.625 10V11ZM4.375 10C4.09886 10 3.875 10.2239 3.875 10.5C3.875 10.7761 4.09886 11 4.375 11V10ZM12.3761 15.2371L16.9698 10.8621L16.2802 10.1379L11.6864 14.5129L12.3761 15.2371ZM16.9698 10.1379L12.3761 5.76293L11.6864 6.48707L16.2802 10.8621L16.9698 10.1379ZM16.625 10L4.375 10V11L16.625 11V10Z" fill="#434343"/>
</svg>
