<svg width="20" height="21" viewBox="0 0 20 21" fill="none" xmlns="http://www.w3.org/2000/svg">
<path d="M5.46307 8.63283C5.27754 8.83737 5.29296 9.15358 5.4975 9.3391C5.70203 9.52462 6.01824 9.50921 6.20376 9.30467L5.46307 8.63283ZM10.3704 4.71092C10.556 4.50638 10.5405 4.19017 10.336 4.00465C10.1315 3.81913 9.81525 3.83454 9.62973 4.03908L10.3704 4.71092ZM10.3704 4.03908C10.1849 3.83454 9.8687 3.81913 9.66416 4.00465C9.45962 4.19017 9.44421 4.50638 9.62973 4.71092L10.3704 4.03908ZM13.7964 9.30467C13.9819 9.50921 14.2981 9.52462 14.5027 9.3391C14.7072 9.15358 14.7226 8.83737 14.5371 8.63283L13.7964 9.30467ZM10.5001 4.375C10.5001 4.09886 10.2762 3.875 10.0001 3.875C9.72394 3.875 9.50008 4.09886 9.50008 4.375H10.5001ZM9.50008 16.625C9.50008 16.9011 9.72394 17.125 10.0001 17.125C10.2762 17.125 10.5001 16.9011 10.5001 16.625H9.50008ZM6.20376 9.30467L10.3704 4.71092L9.62973 4.03908L5.46307 8.63283L6.20376 9.30467ZM9.62973 4.71092L13.7964 9.30467L14.5371 8.63283L10.3704 4.03908L9.62973 4.71092ZM9.50008 4.375V16.625H10.5001V4.375H9.50008Z" fill="#434343"/>
</svg>
