<svg width="22" height="21" viewBox="0 0 22 21" fill="none" xmlns="http://www.w3.org/2000/svg">
<path fill-rule="evenodd" clip-rule="evenodd" d="M4.58337 10.5002C4.58359 7.5781 6.7462 5.06309 9.74863 4.49322C12.7511 3.92334 15.7571 5.45731 16.9284 8.15702C18.0997 10.8567 17.1101 13.9703 14.5646 15.5935C12.0192 17.2168 8.62704 16.8977 6.46254 14.8314C5.25921 13.6827 4.58325 12.1247 4.58337 10.5002Z" stroke="#7A7A7A" stroke-linecap="round" stroke-linejoin="round"/>
<path d="M8.59375 10.0002C8.31761 10.0002 8.09375 10.224 8.09375 10.5002C8.09375 10.7763 8.31761 11.0002 8.59375 11.0002V10.0002ZM11 11.0002C11.2761 11.0002 11.5 10.7763 11.5 10.5002C11.5 10.224 11.2761 10.0002 11 10.0002V11.0002ZM11 10.0002C10.7239 10.0002 10.5 10.224 10.5 10.5002C10.5 10.7763 10.7239 11.0002 11 11.0002V10.0002ZM13.4062 11.0002C13.6824 11.0002 13.9062 10.7763 13.9062 10.5002C13.9062 10.224 13.6824 10.0002 13.4062 10.0002V11.0002ZM11.5 10.5002C11.5 10.224 11.2761 10.0002 11 10.0002C10.7239 10.0002 10.5 10.224 10.5 10.5002H11.5ZM10.5 12.797C10.5 13.0732 10.7239 13.297 11 13.297C11.2761 13.297 11.5 13.0732 11.5 12.797H10.5ZM10.5 10.5002C10.5 10.7763 10.7239 11.0002 11 11.0002C11.2761 11.0002 11.5 10.7763 11.5 10.5002H10.5ZM11.5 8.20329C11.5 7.92715 11.2761 7.70329 11 7.70329C10.7239 7.70329 10.5 7.92715 10.5 8.20329H11.5ZM8.59375 11.0002H11V10.0002H8.59375V11.0002ZM11 11.0002H13.4062V10.0002H11V11.0002ZM10.5 10.5002V12.797H11.5V10.5002H10.5ZM11.5 10.5002V8.20329H10.5V10.5002H11.5Z" fill="#7A7A7A"/>
</svg>
