<svg width="24" height="24" viewBox="0 0 24 24" fill="none" xmlns="http://www.w3.org/2000/svg">
<path fill-rule="evenodd" clip-rule="evenodd" d="M5 12.0002C5.00024 8.66068 7.35944 5.78639 10.6348 5.1351C13.9102 4.48382 17.1895 6.23693 18.4673 9.32231C19.7451 12.4077 18.6655 15.966 15.8887 17.8212C13.1119 19.6764 9.41127 19.3117 7.05 16.9502C5.73728 15.6373 4.99987 13.8568 5 12.0002Z" stroke="#434343" stroke-linecap="round" stroke-linejoin="round"/>
<path d="M9.02151 14.2706C8.82621 14.4658 8.82615 14.7824 9.02138 14.9777C9.2166 15.173 9.53319 15.173 9.72849 14.9778L9.02151 14.2706ZM12.3535 12.3538C12.5488 12.1586 12.5488 11.842 12.3536 11.6467C12.1584 11.4514 11.8418 11.4513 11.6465 11.6466L12.3535 12.3538ZM11.6463 11.6468C11.4511 11.8421 11.4512 12.1587 11.6466 12.3539C11.8419 12.5491 12.1585 12.5489 12.3537 12.3536L11.6463 11.6468ZM14.9777 9.7276C15.1729 9.53227 15.1728 9.21568 14.9774 9.0205C14.7821 8.82531 14.4655 8.82543 14.2703 9.02076L14.9777 9.7276ZM12.3535 11.6466C12.1582 11.4513 11.8416 11.4514 11.6464 11.6467C11.4512 11.842 11.4512 12.1586 11.6465 12.3538L12.3535 11.6466ZM14.2715 14.9778C14.4668 15.173 14.7834 15.173 14.9786 14.9777C15.1738 14.7824 15.1738 14.4658 14.9785 14.2706L14.2715 14.9778ZM11.6464 12.3537C11.8416 12.549 12.1582 12.549 12.3535 12.3538C12.5488 12.1586 12.5488 11.842 12.3536 11.6467L11.6464 12.3537ZM9.72862 9.0207C9.5334 8.8254 9.21681 8.82534 9.02151 9.02056C8.82621 9.21579 8.82615 9.53237 9.02138 9.72767L9.72862 9.0207ZM9.72849 14.9778L12.3535 12.3538L11.6465 11.6466L9.02151 14.2706L9.72849 14.9778ZM12.3537 12.3536L14.9777 9.7276L14.2703 9.02076L11.6463 11.6468L12.3537 12.3536ZM11.6465 12.3538L14.2715 14.9778L14.9785 14.2706L12.3535 11.6466L11.6465 12.3538ZM12.3536 11.6467L9.72862 9.0207L9.02138 9.72767L11.6464 12.3537L12.3536 11.6467Z" fill="#434343"/>
</svg>
