<svg width="24" height="24" viewBox="0 0 24 24" fill="none" xmlns="http://www.w3.org/2000/svg">
<path d="M9 5.5C9.27614 5.5 9.5 5.27614 9.5 5C9.5 4.72386 9.27614 4.5 9 4.5V5.5ZM4.5 11C4.5 11.2761 4.72386 11.5 5 11.5C5.27614 11.5 5.5 11.2761 5.5 11H4.5ZM9 4.5C8.72386 4.5 8.5 4.72386 8.5 5C8.5 5.27614 8.72386 5.5 9 5.5V4.5ZM18.5 11C18.5 11.2761 18.7239 11.5 19 11.5C19.2761 11.5 19.5 11.2761 19.5 11H18.5ZM5.5 11C5.5 10.7239 5.27614 10.5 5 10.5C4.72386 10.5 4.5 10.7239 4.5 11H5.5ZM19.5 11C19.5 10.7239 19.2761 10.5 19 10.5C18.7239 10.5 18.5 10.7239 18.5 11H19.5ZM9 4.5C6.51472 4.5 4.5 6.51472 4.5 9H5.5C5.5 7.067 7.067 5.5 9 5.5V4.5ZM4.5 9V11H5.5V9H4.5ZM9 5.5H15V4.5H9V5.5ZM15 5.5C16.933 5.5 18.5 7.067 18.5 9H19.5C19.5 6.51472 17.4853 4.5 15 4.5V5.5ZM18.5 9V11H19.5V9H18.5ZM4.5 11V15H5.5V11H4.5ZM4.5 15C4.5 17.4853 6.51472 19.5 9 19.5V18.5C7.067 18.5 5.5 16.933 5.5 15H4.5ZM9 19.5H15V18.5H9V19.5ZM15 19.5C17.4853 19.5 19.5 17.4853 19.5 15H18.5C18.5 16.933 16.933 18.5 15 18.5V19.5ZM19.5 15V11H18.5V15H19.5Z" fill="black"/>
</svg>
