<svg width="21" height="21" viewBox="0 0 21 21" fill="none" xmlns="http://www.w3.org/2000/svg">
<path fill-rule="evenodd" clip-rule="evenodd" d="M7 10.5C7 11.4665 6.2165 12.25 5.25 12.25C4.2835 12.25 3.5 11.4665 3.5 10.5C3.5 9.5335 4.2835 8.75 5.25 8.75C5.71413 8.75 6.15925 8.93437 6.48744 9.26256C6.81563 9.59075 7 10.0359 7 10.5Z" stroke="#434343" stroke-linecap="round" stroke-linejoin="round"/>
<path fill-rule="evenodd" clip-rule="evenodd" d="M12.25 10.5C12.25 11.4665 11.4665 12.25 10.5 12.25C9.5335 12.25 8.75 11.4665 8.75 10.5C8.75 9.5335 9.5335 8.75 10.5 8.75C11.4665 8.75 12.25 9.5335 12.25 10.5Z" stroke="#434343" stroke-linecap="round" stroke-linejoin="round"/>
<path fill-rule="evenodd" clip-rule="evenodd" d="M17.5 10.5C17.5 11.4665 16.7165 12.25 15.75 12.25C14.7835 12.25 14 11.4665 14 10.5C14 9.5335 14.7835 8.75 15.75 8.75C16.7165 8.75 17.5 9.5335 17.5 10.5Z" stroke="#434343" stroke-linecap="round" stroke-linejoin="round"/>
</svg>
