<svg width="20" height="20" viewBox="0 0 20 20" fill="none" xmlns="http://www.w3.org/2000/svg">
<path fill-rule="evenodd" clip-rule="evenodd" d="M8.90836 6.54163C9.32786 5.91117 9.22242 5.06858 8.66051 4.56093C8.09859 4.05328 7.24965 4.03366 6.66489 4.51482C6.08012 4.99597 5.93588 5.83279 6.32581 6.48196C6.71574 7.13112 7.52225 7.39686 8.2217 7.10663C8.50121 6.99 8.74009 6.79346 8.90836 6.54163Z" stroke="#7A7A7A" stroke-linecap="round" stroke-linejoin="round"/>
<path fill-rule="evenodd" clip-rule="evenodd" d="M8.90836 15.1375C9.32786 14.507 9.22242 13.6644 8.66051 13.1568C8.09859 12.6491 7.24965 12.6295 6.66489 13.1107C6.08012 13.5918 5.93588 14.4286 6.32581 15.0778C6.71574 15.727 7.52225 15.9927 8.2217 15.7025C8.50121 15.5858 8.74009 15.3893 8.90836 15.1375V15.1375Z" stroke="#7A7A7A" stroke-linecap="round" stroke-linejoin="round"/>
<path fill-rule="evenodd" clip-rule="evenodd" d="M11.0917 10.8391C10.6722 10.2087 10.7776 9.36607 11.3395 8.85842C11.9014 8.35077 12.7504 8.33115 13.3351 8.8123C13.9199 9.29346 14.0642 10.1303 13.6742 10.7794C13.2843 11.4286 12.4778 11.6943 11.7783 11.4041C11.4988 11.2875 11.2599 11.0909 11.0917 10.8391V10.8391Z" stroke="#7A7A7A" stroke-linecap="round" stroke-linejoin="round"/>
<path d="M9.16663 5.18832C8.89048 5.18832 8.66663 5.41218 8.66663 5.68832C8.66663 5.96447 8.89048 6.18832 9.16663 6.18832V5.18832ZM15.8333 6.18832C16.1094 6.18832 16.3333 5.96447 16.3333 5.68832C16.3333 5.41218 16.1094 5.18832 15.8333 5.18832V6.18832ZM6.10579 6.18832C6.38193 6.18832 6.60579 5.96447 6.60579 5.68832C6.60579 5.41218 6.38193 5.18832 6.10579 5.18832V6.18832ZM4.16663 5.18832C3.89048 5.18832 3.66663 5.41218 3.66663 5.68832C3.66663 5.96447 3.89048 6.18832 4.16663 6.18832V5.18832ZM9.16663 13.785C8.89048 13.785 8.66663 14.0088 8.66663 14.285C8.66663 14.5611 8.89048 14.785 9.16663 14.785V13.785ZM15.8333 14.785C16.1094 14.785 16.3333 14.5611 16.3333 14.285C16.3333 14.0088 16.1094 13.785 15.8333 13.785V14.785ZM6.10579 14.785C6.38193 14.785 6.60579 14.5611 6.60579 14.285C6.60579 14.0088 6.38193 13.785 6.10579 13.785V14.785ZM4.16663 13.785C3.89048 13.785 3.66663 14.0088 3.66663 14.285C3.66663 14.5611 3.89048 14.785 4.16663 14.785V13.785ZM10.8333 10.4867C11.1094 10.4867 11.3333 10.2628 11.3333 9.98666C11.3333 9.71052 11.1094 9.48666 10.8333 9.48666V10.4867ZM4.16663 9.48666C3.89048 9.48666 3.66663 9.71052 3.66663 9.98666C3.66663 10.2628 3.89048 10.4867 4.16663 10.4867V9.48666ZM13.8941 9.48666C13.618 9.48666 13.3941 9.71052 13.3941 9.98666C13.3941 10.2628 13.618 10.4867 13.8941 10.4867V9.48666ZM15.8333 10.4867C16.1094 10.4867 16.3333 10.2628 16.3333 9.98666C16.3333 9.71052 16.1094 9.48666 15.8333 9.48666V10.4867ZM9.16663 6.18832H15.8333V5.18832H9.16663V6.18832ZM6.10579 5.18832H4.16663V6.18832H6.10579V5.18832ZM9.16663 14.785H15.8333V13.785H9.16663V14.785ZM6.10579 13.785H4.16663V14.785H6.10579V13.785ZM10.8333 9.48666H4.16663V10.4867H10.8333V9.48666ZM13.8941 10.4867H15.8333V9.48666H13.8941V10.4867Z" fill="#7A7A7A"/>
</svg>
